<?xml version="1.0" encoding="utf-8"?>
<!-- Generator: Adobe Illustrator 26.0.2, SVG Export Plug-In . SVG Version: 6.00 Build 0)  -->
<svg version="1.1" id="Layer_1" xmlns="http://www.w3.org/2000/svg" xmlns:xlink="http://www.w3.org/1999/xlink" x="0px" y="0px"
	 viewBox="0 0 40 40" style="enable-background:new 0 0 40 40;" xml:space="preserve">
<style type="text/css">
	.st0{fill:#E71E25;}
</style>
<path class="st0" d="M20,0C9,0,0,9,0,20s9,20,20,20s20-9,20-20S31,0,20,0z M29,24.2c0.1,2.2-0.7,4.4-2.2,5.9
	c-1.5,1.4-3.6,2.1-6.5,2.1c-2.3,0.2-4.6-0.5-6.5-2c-1.6-1.6-2.4-3.7-2.3-5.9V10.9h5.2V24c-0.1,1.1,0.2,2.3,0.8,3.2
	c0.7,0.8,1.7,1.2,2.7,1.1c1,0.1,2-0.3,2.7-1c0.7-1,1-2.1,0.9-3.3V11H29V24.2z"/>
</svg>
